<svg xmlns="http://www.w3.org/2000/svg" width="32" height="32" viewBox="0 0 32 32">
  <g fill="none">
    <path fill="#00ADD8" d="M15.997 32c-8.837 0-16-7.163-16-16s7.163-16 16-16c8.838 0 16 7.163 16 16s-7.162 16-16 16z"/>
    <path fill="#fff" d="M19.16 19.56c-.16 0-.32-.04-.46-.14-.37-.24-.47-.74-.23-1.11.34-.52.37-1.18.07-1.73-.3-.55-.88-.91-1.52-.94h-4.14l-.29.29c-.51.51-.8 1.2-.8 1.92 0 .73.28 1.41.8 1.92.51.51 1.2.8 1.92.8h4.19c.43 0 .78.35.78.78 0 .43-.35.78-.78.78h-4.19c-1.05 0-2.04-.41-2.79-1.16-.75-.75-1.16-1.74-1.16-2.79 0-1.05.41-2.04 1.16-2.79l.58-.58c.15-.15.34-.23.54-.23h4.68c1.06.06 2 .63 2.5 1.54.5.91.45 1.98-.13 2.85-.15.25-.41.39-.68.39zm-9.77 2.81c-.43 0-.78-.35-.78-.78s.35-.78.78-.78h1.56c.43 0 .78.35.78.78s-.35.78-.78.78h-1.56zm12.5 0c-.43 0-.78-.35-.78-.78s.35-.78.78-.78h1.56c.43 0 .78.35.78.78s-.35.78-.78.78h-1.56z"/>
    <path fill="#fff" d="M18.38 13.16c0 .94-.76 1.7-1.7 1.7-.94 0-1.7-.76-1.7-1.7 0-.94.76-1.7 1.7-1.7.94 0 1.7.76 1.7 1.7zm-6.02-.65c0 .94-.76 1.7-1.7 1.7-.94 0-1.7-.76-1.7-1.7 0-.94.76-1.7 1.7-1.7.94 0 1.7.76 1.7 1.7z"/>
    <path fill="#333" d="M17.9 13.16c0 .67-.55 1.22-1.22 1.22-.67 0-1.22-.55-1.22-1.22 0-.67.55-1.22 1.22-1.22.67 0 1.22.55 1.22 1.22zm-6.02-.65c0 .67-.55 1.22-1.22 1.22-.67 0-1.22-.55-1.22-1.22 0-.67.55-1.22 1.22-1.22.67 0 1.22.55 1.22 1.22z"/>
  </g>
</svg>
