<svg width="5975" height="2970" viewBox="0 0 5975 2970" fill="none" xmlns="http://www.w3.org/2000/svg">
<path d="M747.825 2074.94C821.917 2114.29 883.806 2173.25 926.748 2245.39C970.522 2318.91 993.175 2403.1 992.208 2488.69C993.134 2573.81 970.474 2657.52 926.748 2730.52C883.569 2803.6 821.835 2863.92 747.825 2905.34C670.882 2948.14 584.177 2970.22 496.17 2969.44C408.146 2970.35 321.407 2948.26 244.514 2905.34C170.504 2863.92 108.77 2803.6 65.5909 2730.52C21.8647 2657.52 -0.794519 2573.81 0.131291 2488.69C-0.835956 2403.1 21.8166 2318.91 65.5909 2245.39C108.533 2173.25 170.422 2114.29 244.514 2074.94C321.521 2032.47 408.269 2010.88 496.17 2012.3C584.047 2011.08 670.745 2032.66 747.825 2074.94V2074.94ZM340.521 2213.34C291.962 2240.34 251.714 2280.14 224.149 2328.43C196.173 2377.17 181.616 2432.47 181.963 2488.69C181.399 2545.12 196.508 2600.6 225.603 2648.94C253.393 2696.94 292.945 2737.05 340.521 2765.49C388.81 2793.13 443.458 2807.69 499.079 2807.74C553.348 2807.9 606.643 2793.29 653.273 2765.49C700.849 2737.05 740.401 2696.94 768.191 2648.94C794.927 2599.77 808.935 2544.67 808.935 2488.69C808.935 2432.7 794.927 2377.6 768.191 2328.43C740.736 2280.56 701.078 2240.84 653.273 2213.34C606.643 2185.54 553.348 2170.93 499.079 2171.09C443.432 2170.93 388.731 2185.51 340.521 2213.34" fill="#1F1F1F"/>
<path d="M2292.71 2911.17C2239.2 2945.21 2177.17 2963.39 2113.79 2963.62C2060.22 2964.81 2008.22 2945.53 1968.32 2909.72C1947.92 2888.9 1932.18 2863.98 1922.15 2836.59C1912.12 2809.21 1908.02 2780.01 1910.14 2750.92V2076.4L2081.79 2056.01V2273.08H2285.44V2399.82H2081.79V2720.33C2079.47 2745.16 2086.18 2769.99 2100.7 2790.25C2107.93 2797.4 2116.6 2802.92 2126.13 2806.44C2135.67 2809.96 2145.84 2811.39 2155.97 2810.65C2191.08 2807.95 2225.24 2798.03 2256.35 2781.51L2292.71 2911.17Z" fill="#1F1F1F"/>
<path d="M2692.75 2272.99C2737.09 2247.83 2787.25 2234.76 2838.21 2235.12V2404.11C2806.96 2400.49 2775.31 2403.14 2745.09 2411.89C2714.87 2420.64 2686.69 2435.33 2662.2 2455.1C2640.45 2474.92 2623.31 2499.29 2612 2526.48C2600.68 2553.67 2595.48 2583.01 2596.74 2612.44V2954.8H2422.18V2243.86H2595.28V2380.8C2616.51 2336.44 2650.44 2299.42 2692.75 2274.45" fill="#1F1F1F"/>
<path d="M3491.34 2335.84C3552.53 2412.94 3583.09 2509.96 3577.17 2608.27C3578.08 2625.74 3578.08 2643.24 3577.17 2660.71H3054.94C3064.64 2707.01 3089.77 2748.63 3126.22 2778.72C3163.84 2808.43 3210.71 2823.9 3258.6 2822.42C3294.46 2822.15 3329.97 2815.23 3363.33 2802.03C3396.22 2788.34 3425.93 2768.01 3450.61 2742.3L3543.71 2839.91C3507.52 2878.96 3463.37 2909.77 3414.24 2930.23C3360.22 2952.19 3302.35 2963.09 3244.05 2962.28C3178.22 2963.46 3113.16 2947.92 3054.94 2917.12C3001.19 2887.81 2956.81 2843.87 2926.93 2790.37C2895.87 2732.18 2880.34 2666.95 2881.84 2600.98C2880.87 2537.57 2895.88 2474.94 2925.48 2418.88C2955.24 2364.55 2999.58 2319.63 3053.49 2289.22C3111.13 2258.29 3175.76 2242.74 3241.14 2244.06C3288.36 2240.44 3335.79 2247.31 3380.05 2264.18C3424.31 2281.06 3464.3 2307.51 3497.16 2341.66L3491.34 2335.84ZM3424.43 2549.99C3424.6 2526.78 3420.18 2503.76 3411.45 2482.26C3402.71 2460.76 3389.82 2441.2 3373.51 2424.71C3337.44 2392.96 3290.58 2376.28 3242.59 2378.09C3196.03 2376.96 3150.78 2393.62 3116.04 2424.71C3080.97 2457.69 3058.79 2502.11 3053.49 2549.99H3424.43Z" fill="#1F1F1F"/>
<path d="M4420.85 2244.03V2954.97H4247.75V2842.8C4223.32 2880.76 4189.16 2911.45 4148.83 2931.66C4103.94 2954.81 4053.81 2965.85 4003.37 2963.71C3941.07 2964.73 3879.68 2948.61 3825.9 2917.09C3774.99 2886.77 3734.04 2842.21 3708.07 2788.89C3678.16 2729.81 3663.18 2664.28 3664.43 2598.05C3663.18 2532.28 3678.17 2467.22 3708.07 2408.66C3734.54 2356.07 3775.41 2312.11 3825.9 2281.91C3879.8 2250.84 3941.19 2235.21 4003.37 2236.75C4053.81 2234.61 4103.94 2245.66 4148.83 2268.8C4189.57 2288.97 4224.22 2319.65 4249.2 2357.67V2244.03H4420.85ZM4185.2 2765.58C4222.12 2728.58 4244.36 2679.39 4247.75 2627.18V2576.19C4244.76 2523.89 4222.47 2474.56 4185.2 2437.79C4146.26 2401.82 4094.86 2382.46 4041.9 2383.82C3988.94 2385.18 3938.59 2407.15 3901.54 2445.08C3864.98 2489.05 3844.96 2544.47 3844.96 2601.69C3844.96 2658.91 3864.98 2714.32 3901.54 2758.3C3939.12 2795.25 3989.29 2816.55 4041.94 2817.9C4094.58 2819.25 4145.78 2800.55 4185.2 2765.58" fill="#1F1F1F"/>
<path d="M4897.99 2389.64C4870.97 2388.18 4843.96 2392.64 4818.84 2402.71C4793.71 2412.77 4771.08 2428.2 4752.52 2447.91C4717.57 2491.21 4698.5 2545.2 4698.5 2600.88C4698.5 2656.56 4717.57 2710.55 4752.52 2753.85C4770.76 2774.07 4793.3 2789.94 4818.47 2800.27C4843.65 2810.61 4870.82 2815.16 4897.99 2813.58C4934.66 2816.25 4971.42 2809.95 5005.13 2795.23C5038.83 2780.51 5068.45 2757.81 5091.46 2729.08L5199.1 2817.95C5167.25 2864.17 5123.52 2900.91 5072.54 2924.3C5015.53 2950.39 4953.39 2963.34 4890.71 2962.18C4825.77 2963.71 4761.56 2948.14 4704.52 2917.02C4650.76 2887.71 4606.38 2843.77 4576.51 2790.27C4546.1 2731.84 4530.6 2666.77 4531.41 2600.88C4530.22 2534.77 4546.27 2469.49 4577.96 2411.49C4607.35 2357.26 4651.82 2312.73 4705.97 2283.29C4763.5 2252.05 4828.2 2236.47 4893.62 2238.13C4953 2237.38 5011.9 2248.79 5066.73 2271.63C5115.35 2292.78 5157.87 2325.85 5190.37 2367.79L5085.64 2468.31C5062.18 2442.43 5033.37 2421.98 5001.21 2408.39C4969.05 2394.8 4934.32 2388.4 4899.44 2389.64" fill="#1F1F1F"/>
<path d="M5904.6 2311.03C5953.19 2365.76 5978.28 2437.48 5974.42 2510.62V2954.96H5799.86V2564.52C5801.19 2543.01 5798.14 2521.46 5790.88 2501.17C5783.63 2480.89 5772.33 2462.29 5757.67 2446.52C5742.87 2431.27 5724.9 2419.46 5705.05 2411.91C5685.2 2404.36 5663.94 2401.25 5642.76 2402.81C5616.97 2402.03 5591.34 2406.98 5567.7 2417.31C5544.05 2427.64 5522.99 2443.09 5506.02 2462.54C5470.65 2502.55 5452.37 2554.86 5455.11 2608.23V2957.87H5282V1967.21H5455.11V2379.5C5478.89 2332.81 5515.81 2294.12 5561.31 2268.23C5606.82 2242.34 5658.9 2230.37 5711.13 2233.82C5746.76 2232.02 5782.38 2237.69 5815.7 2250.49C5849.02 2263.28 5879.3 2282.91 5904.6 2308.12" fill="#1F1F1F"/>
<path d="M1585.68 2243.95V2648.95C1585.68 2690.29 1569.28 2729.94 1540.09 2759.17C1510.9 2788.41 1471.31 2804.83 1430.03 2804.83C1388.75 2804.83 1349.16 2788.41 1319.97 2759.17C1290.78 2729.94 1274.39 2690.29 1274.39 2648.95V2243.95H1102.74V2643.12C1099.8 2686.53 1106.32 2730.07 1121.86 2770.71C1137.39 2811.34 1161.57 2848.11 1192.7 2878.46C1223.84 2908.81 1261.19 2932.02 1302.17 2946.47C1343.15 2960.93 1386.78 2966.28 1430.03 2962.17C1473.29 2966.28 1516.92 2960.93 1557.9 2946.47C1598.88 2932.02 1636.23 2908.81 1667.37 2878.46C1698.5 2848.11 1722.67 2811.34 1738.21 2770.71C1753.74 2730.07 1760.27 2686.53 1757.33 2643.12V2243.95H1585.68Z" fill="#1F1F1F"/>
<path d="M2915.32 0C2661.21 0 2470.17 64.2096 2359.11 174.413C2303.36 230.384 2259.78 297.197 2231.08 370.687C2202.38 444.177 2189.18 522.77 2192.3 601.566C2192.3 862.048 2324.38 1140.74 2509.02 1324.72C2557.01 1372.99 2723.37 1520.08 2941.38 1520.08C3159.38 1520.08 3329.85 1383.47 3434.06 1281C3635.61 1080.18 3817.97 734.54 3817.97 506.846C3818.9 411.316 3782.13 319.243 3715.59 250.463C3540.55 76.0497 3163.95 0 2915.32 0ZM3223.36 899.845C3192.74 934.64 3155.28 962.814 3113.31 982.629C3071.33 1002.44 3025.73 1013.48 2979.31 1015.06C2901.9 1013.49 2828.02 982.54 2772.73 928.534C2709.71 866.045 2672.8 782.079 2669.44 693.555C2668.37 656.637 2674.83 619.888 2688.42 585.528C2702.01 551.167 2722.45 519.908 2748.51 493.64C2782.86 461.996 2823.29 437.612 2867.35 421.958C2911.42 406.305 2958.21 399.707 3004.9 402.562C3053.16 399.835 3101.47 407.175 3146.72 424.113C3191.97 441.05 3233.17 467.213 3267.7 500.926C3287.79 521 3303.64 544.882 3314.32 571.162C3324.99 597.443 3330.28 625.588 3329.85 653.936C3327.35 746.486 3289.22 834.532 3223.36 899.845Z" fill="#5951FF"/>
</svg>
