<?xml version="1.0" encoding="utf-8"?>
<!-- Generator: Adobe Illustrator 27.5.0, SVG Export Plug-In . SVG Version: 6.00 Build 0)  -->
<svg version="1.1" id="Logo" xmlns="http://www.w3.org/2000/svg" xmlns:xlink="http://www.w3.org/1999/xlink" x="0px" y="0px"
	 viewBox="0 0 1104.7 630.1" style="enable-background:new 0 0 1104.7 630.1;" xml:space="preserve">
<style type="text/css">
	.st0{fill:url(#SVGID_1_);}
	.st1{fill:url(#SVGID_00000116916251800263765320000016889089719179778693_);}
	.st2{fill:url(#SVGID_00000017518130218139794340000013766446023025677740_);}
	.st3{fill:url(#SVGID_00000023256129575029513380000002572973530700343426_);}
	.st4{fill:url(#SVGID_00000148621895744403248090000018186498599218533535_);}
</style>
<g>
	<path d="M67.2,546.5L67.2,546.5c23.7,4.4,44.7,11.6,44.7,39.6c-0.2,26.1-21.6,44-54.2,44c-35.3,0-57.4-18.7-57.8-47l29.4,0.4
		c1,13.5,11.7,22.9,28.8,22.9c13.7,0,23.8-6,23.8-16.9c0-11.7-11.3-14.1-34.6-18.7c-23.6-4.6-44.1-12-44.1-40.2
		c0-24.7,19.1-42.2,51.8-42.2s53.4,17.1,54,43.8H79.7c-1.2-11.7-10.1-19.9-24.6-19.9c-12.7,0-22,5.4-22,16.1
		C33.1,539.7,44.2,542.1,67.2,546.5L67.2,546.5z M293.1,525.4c-15.9,0-26.2,11.8-30.9,25.8h-7.4l6.5-14.6c1.4-3.1,2.1-6.5,2.1-9.9
		h-32v102.2h28.1v-52.3c0-17.7,8.4-28.1,22.9-28.1s20.7,9.2,20.7,26.5v53.9h28.1v-57.3C331.2,536.7,314.3,525.4,293.1,525.4
		L293.1,525.4z M521.2,525.4c-15.9,0-26.2,11.8-30.9,25.8h-7.4l6.5-14.6c1.4-3.1,2.1-6.5,2.1-9.9h-32v102.2h28.1v-52.3
		c0-17.7,8.4-28.1,22.9-28.1c14.5,0,20.7,9.2,20.7,26.5v53.9h28.1v-57.3C559.2,536.7,542.3,525.4,521.2,525.4L521.2,525.4z
		 M445.1,526.6H417v102.2h28.2L445.1,526.6z M709.4,485.7l-28,14.1v129.1h28V485.7z M445.1,490.7H417v28.2h28.2V490.7z M380.5,526.6
		v-36.2l-28,14.1v22.1h-16.9v23.6h16.9v63.6c0,8.3,6.7,15,15,15h36.4v-23.7h-23.4v-54.9h23.4v-23.6H380.5z M622.3,630
		c27.5,0,45.2-15.9,48.4-35.8H643c-2.6,9.6-10.5,14.5-21.7,14.5c-14.1,0-23.5-8.8-24.1-23.3v-1.4h74c0.6-3.2,0.8-6.6,0.8-9.6
		c-0.2-30-21.1-49.2-51.5-49.2c-31.6,0-52.5,20.7-52.5,52.5C568,609.5,588.3,630,622.3,630z M597.8,565.8
		c1.6-12.1,10.7-19.5,22.9-19.5c12.5,0,21.3,7,23.1,19.5H597.8z M940.7,525.4c-15.9,0-26.2,11.8-30.9,25.8h-7.4l6.5-14.6
		c1.4-3.1,2.1-6.5,2.1-9.9h-32v102.2h28.1v-52.3c0-17.7,8.4-28.1,22.9-28.1c14.5,0,20.7,9.2,20.7,26.5v53.9h28.1v-57.3
		C978.8,536.7,961.9,525.4,940.7,525.4L940.7,525.4z M1041.8,630c27.5,0,45.2-15.9,48.4-35.8h-27.7c-2.6,9.6-10.5,14.5-21.7,14.5
		c-14.1,0-23.5-8.8-24.1-23.3v-1.4h74c0.6-3.2,0.8-6.6,0.8-9.6c-0.2-30-21.1-49.2-51.5-49.2c-31.6,0-52.5,20.7-52.5,52.5
		C987.5,609.5,1007.8,630,1041.8,630z M1017.4,565.8c1.6-12.1,10.7-19.5,22.9-19.5c12.5,0,21.3,7,23.1,19.5H1017.4z M173.3,630
		c27.5,0,45.2-15.9,48.4-35.8H194c-2.6,9.6-10.5,14.5-21.7,14.5c-14.1,0-23.5-8.8-24.1-23.3v-1.4h74c0.6-3.2,0.8-6.6,0.8-9.6
		c-0.2-30-21.1-49.2-51.5-49.2c-31.6,0-52.5,20.7-52.5,52.5C119,609.5,139.3,630,173.3,630z M148.8,565.8
		c1.6-12.1,10.7-19.5,22.9-19.5c12.5,0,21.3,7,23.1,19.5H148.8z M869.7,559.2c0-40.6-30.1-70.8-71.1-70.8s-70.6,30.2-70.6,70.8
		s29.7,70.8,70.6,70.8S869.7,599.8,869.7,559.2z M758.4,559.2c0-26.3,16.7-45.5,40.2-45.5c23.3,0,40.4,19.3,40.4,45.5
		s-17.2,45.5-40.4,45.5C775.1,604.8,758.4,585.5,758.4,559.2z M1092.4,528.8h1.9v-3h1.6l1.5,3h2.1l-1.8-3.5c0.9-0.5,1.5-1.4,1.5-2.5
		c0-1.8-1.3-3-3.3-3h-3.7V528.8z M1095.9,521.4c0.9,0,1.5,0.5,1.5,1.4c0,0.8-0.6,1.4-1.5,1.4h-1.6v-2.8H1095.9z M1104.7,524.5
		c0-5-4.1-9-9-9s-9,4.1-9,9c0,5,4.1,9,9,9S1104.7,529.5,1104.7,524.5z M1102.8,524.5c0,3.9-3.2,7.1-7.1,7.1c-3.9,0-7.1-3.2-7.1-7.1
		c0-3.9,3.2-7.1,7.1-7.1C1099.6,517.4,1102.8,520.6,1102.8,524.5z"/>
	<g>
		<linearGradient id="SVGID_1_" gradientUnits="userSpaceOnUse" x1="705.6709" y1="120.3296" x2="545.7249" y2="40.2543">
			<stop  offset="0" style="stop-color:#4500B6"/>
			<stop  offset="1" style="stop-color:#6100FF"/>
		</linearGradient>
		<polygon class="st0" points="545.8,80.7 706.8,161.2 706.8,80.5 545.8,0 545.8,80.7 		"/>
		
			<linearGradient id="SVGID_00000169544422855009445410000000320375740289911192_" gradientUnits="userSpaceOnUse" x1="705.6709" y1="-2128.1262" x2="545.7249" y2="-2208.2017" gradientTransform="matrix(1 0 0 -1 0 -1845.9595)">
			<stop  offset="0" style="stop-color:#4500B6"/>
			<stop  offset="1" style="stop-color:#6100FF"/>
		</linearGradient>
		<polygon style="fill:url(#SVGID_00000169544422855009445410000000320375740289911192_);" points="545.8,321.8 706.8,241.3 
			706.8,322 545.8,402.5 545.8,321.8 		"/>
		
			<linearGradient id="SVGID_00000047758007652134934800000006356060906831282048_" gradientUnits="userSpaceOnUse" x1="-2780.2502" y1="120.3296" x2="-2940.1963" y2="40.2543" gradientTransform="matrix(-1 0 0 1 -2394.3303 0)">
			<stop  offset="0" style="stop-color:#6100FF"/>
			<stop  offset="1" style="stop-color:#4500B6"/>
		</linearGradient>
		<polygon style="fill:url(#SVGID_00000047758007652134934800000006356060906831282048_);" points="545.8,80.7 384.8,161.2 
			384.8,80.5 545.8,0 545.8,80.7 		"/>
		
			<linearGradient id="SVGID_00000068677074252306860900000016233220817337756842_" gradientUnits="userSpaceOnUse" x1="-2780.2502" y1="-2128.1262" x2="-2940.1963" y2="-2208.2017" gradientTransform="matrix(-1 0 0 -1 -2394.3303 -1845.9595)">
			<stop  offset="0" style="stop-color:#6100FF"/>
			<stop  offset="1" style="stop-color:#4500B6"/>
		</linearGradient>
		<polygon style="fill:url(#SVGID_00000068677074252306860900000016233220817337756842_);" points="545.8,321.8 384.8,241.3 
			384.8,322 545.8,402.5 545.8,321.8 		"/>
		
			<linearGradient id="SVGID_00000057865929346830222630000001558703061093236661_" gradientUnits="userSpaceOnUse" x1="631.6741" y1="244.2442" x2="458.5665" y2="157.5797">
			<stop  offset="0" style="stop-color:#6100FF"/>
			<stop  offset="1" style="stop-color:#4500B6"/>
		</linearGradient>
		<polygon style="fill:url(#SVGID_00000057865929346830222630000001558703061093236661_);" points="425,181.2 585.9,261.6 
			666.5,221.3 505.7,140.9 		"/>
	</g>
</g>
</svg>
